<svg xmlns="http://www.w3.org/2000/svg" viewBox="0 0 403.11 172"><defs><style>.cls-1,.cls-2,.cls-3,.cls-5,.cls-6{fill:none;}.cls-1,.cls-2,.cls-5,.cls-6{stroke:#007dc5;}.cls-1{stroke-width:2.22px;}.cls-2{stroke-width:2.68px;}.cls-4{fill:#007dc5;}.cls-5{stroke-width:2.55px;}.cls-6{stroke-width:2.38px;}.cls-7{fill:#fff;}.cls-8{fill:#6dcff5;}.cls-9{fill:#0f7bb9;}.cls-10{fill:#0077b8;}</style></defs><title>Fichier 1</title><g id="Calque_2" data-name="Calque 2"><g id="Calque_1-2" data-name="Calque 1"><g id="Calque_2-2" data-name="Calque 2"><g id="Calque_2-2-2" data-name="Calque 2-2"><polygon class="cls-1" points="401.74 23.43 266.8 23.43 292.75 145.86 375.79 145.86 401.74 23.43"/><line class="cls-2" x1="274.26" y1="55.68" x2="394.9" y2="55.68"/><path class="cls-3" d="M362.73,69.27h-9.85A24.73,24.73,0,0,0,344,61.62V76.49Z"/><path class="cls-3" d="M332.8,59a24.7,24.7,0,0,0-24.68,24L340,60A24.93,24.93,0,0,0,332.8,59Z"/><path class="cls-3" d="M309.49,91.81a24.79,24.79,0,0,0,12.45,14l-.45-19.91Z"/><path class="cls-4" d="M338.05,43.64,401.74,0,344,22.22V2.88L266.8,58.55l54.69-26.92.3,13.53a40.16,40.16,0,0,1,11.82-1.77A41,41,0,0,1,338.05,43.64Z"/><path class="cls-4" d="M343.37,122.71a41.06,41.06,0,0,1-5.51,1L270.94,172l51.33-25.27.49,21.59L397.6,117l-54.23,20.86Z"/><path class="cls-4" d="M362.73,69.27,344,76.49V61.62a24.73,24.73,0,0,0-4-1.6L308.12,83v.64a24.63,24.63,0,0,0,1.39,8.16l12-5.91.45,19.94a23.78,23.78,0,0,0,2.81,1.17l77-52.74-31.72,12.2c.43.92.83,1.85,1.19,2.8Z"/><path class="cls-4" d="M266.8,112.82l29.35-14.44a42.08,42.08,0,0,1-1.72-5.49Z"/><path class="cls-4" d="M332.8,59A24.93,24.93,0,0,1,340,60l4-2.87V61.6a24.73,24.73,0,0,1,8.91,7.65h9.83l7.29-2.8a40.29,40.29,0,0,0-32-22.83l-16,11-.22-9.47a40.28,40.28,0,0,0-28.44,38.5,41.65,41.65,0,0,0,1.07,9.24L308.12,83A24.7,24.7,0,0,1,332.8,59Z"/><path class="cls-4" d="M343.37,122.71a40.33,40.33,0,0,0,27.74-24.42H352.7A24.72,24.72,0,0,1,324.77,107L322,108.89l-.07-3.06a24.79,24.79,0,0,1-12.45-14l-13.34,6.55a40.28,40.28,0,0,0,37.46,25.53c1.44,0,2.85-.09,4.25-.23l5.51-4Z"/><path class="cls-4" d="M371.21,69.27c-.36-1-.76-1.88-1.19-2.8l-7.29,2.8Z"/><line class="cls-5" x1="279.83" y1="83.55" x2="389.33" y2="83.55"/><line class="cls-6" x1="286.9" y1="115.28" x2="382.26" y2="115.28"/><path class="cls-7" d="M334.27,73.79a9.76,9.76,0,1,0,9.87,9.76A9.76,9.76,0,0,0,334.27,73.79Zm0,15a5.36,5.36,0,1,1,5.42-5.36,5.36,5.36,0,0,1-5.42,5.36h0Z"/></g></g><g id="Calque_2-3" data-name="Calque 2"><g id="_Calque_" data-name=" Calque "><path class="cls-8" d="M194.75,55.57C209,41.08,217,28.45,215.46,20.83,212.28,4.71,168.25,16.92,117,48.12,98,59.73,96,57.65,81.89,69.75c-.17,0-.84,3.51-1.8,4.27V88.09H61.89c-.56.45-1,.82-1.13,1-21,18.76-32.6,35.27-30.74,44.67,3.15,16.12,47.2,3.91,98.45-27.29,18-11,28.84-22.84,39.7-34.29V55.57Z"/><rect class="cls-9" x="0.48" y="123.03" width="231.41" height="4.11"/><path class="cls-10" d="M198,68.2c29.09,1.44,36.26,4,36,20.17-.16,11.62.34,23-42.92,23.15-25,0-41.67-.28-41.36-23.32h25.15c0,7.32,3.58,8.08,16.43,8,12.32,0,16.37-.62,16.46-6.53s-1.35-6-13.67-6.52l-5.63-.26c-24.22-1.15-38.37-1-38.12-21.18s16.18-21.49,41.86-21.55c21.49,0,39.86.17,39.58,19.69v2.82H206.45c0-7.21-4.1-7.21-14.57-7.18-14.06,0-15.39,2.11-15.44,6.05,0,5.63,3.74,5.8,10.66,6.16Z"/><polygon class="cls-3" points="55.9 83.53 79.67 83.53 79.67 56.64 77.25 56.64 55.9 83.53"/><path class="cls-10" d="M61.13,40.89.48,111.13H32.77L43,99H79.55v12.13h39.14V40.8ZM79.67,83.53H55.9L77.25,56.61h2.42Z"/><path class="cls-7" d="M144,87.47H123.92V111.1H99.19v-71h45c17.19,0,30,8.44,30,23.4C174.24,79.28,162,87.47,144,87.47Zm-11.5-34h-8.72V74.28h6.78c9.22,0,18.45-1.18,18.45-10.64C149.1,55.54,140.66,53.43,132.5,53.43Z"/><path class="cls-9" d="M7,144H9.56l2.09,13.76H9.34L9,154.62H4l-1.46,3.15H0Zm-1.94,8.44H8.64l-.74-6h0Z"/><path class="cls-9" d="M15.56,144H19c2.42,0,5.15,1.1,5.15,5.88a7,7,0,0,1-6.13,7.83,7.25,7.25,0,0,1-1,.05H13.14Zm.28,11.59h1c3.32,0,4.84-2.33,4.84-6.1a3.13,3.13,0,0,0-2.91-3.33,3,3,0,0,0-.52,0H17.5Z"/><path class="cls-9" d="M26.33,144h2.31l1.07,10.69h0L34.52,144H37l-6.44,13.76H27.77Z"/><path class="cls-9" d="M41.27,144h2.56l2.11,13.76H43.6l-.39-3.15h-4.9l-1.49,3.15H34.26Zm-1.94,8.44H42.9l-.7-6h0Z"/><path class="cls-9" d="M49.79,144h2.82l2.58,10.36h0l1.89-10.44h2.16l-2.47,13.76h-3L51.4,147.14h0l-1.83,10.55H47.34Z"/><path class="cls-9" d="M69.4,146.74a4.19,4.19,0,0,0-2.64-.81c-2.56,0-4.37,2.3-4.37,5.62,0,2.31,1.24,4.36,3.3,4.36a4.1,4.1,0,0,0,2.42-.84l-.37,2.64a8.3,8.3,0,0,1-2.62.37c-3.48,0-5.14-2.81-5.14-6.53,0-4.41,2.53-7.7,6.61-7.7a7.81,7.81,0,0,1,3.37.67Z"/><path class="cls-9" d="M71.88,144h6.89l-.34,2.17H73.79l-.65,3.38h4l-.36,2.16h-4l-.67,3.88h4.55l-.39,2.17H69.43Z"/><path class="cls-9" d="M81.05,144h3.48c2.42,0,5.15,1.1,5.15,5.88a7,7,0,0,1-6.13,7.83,7.25,7.25,0,0,1-1,.05H78.77Zm.28,11.59h1.09c3.32,0,4.84-2.33,4.84-6.1a3.11,3.11,0,0,0-2.89-3.33,3,3,0,0,0-.6,0H83Z"/><path class="cls-9" d="M97.31,157.77H95L97.42,144h2c2.14,0,5.06,0,5.06,3.58a4.65,4.65,0,0,1-4.31,4.95,5.61,5.61,0,0,1-.58,0H98.23Zm1.32-7.4h.81a2.45,2.45,0,0,0,2.59-2.3v-.2c0-1.41-1-1.69-1.94-1.69h-.73Z"/><path class="cls-9" d="M116.35,149.61a10.22,10.22,0,0,1-1.94,6.08,5.89,5.89,0,0,1-4.9,2.31c-2.81,0-4.55-2.45-4.55-5.63a10.26,10.26,0,0,1,1.94-6.05,5.62,5.62,0,0,1,4.75-2.56C114.66,143.76,116.35,145.93,116.35,149.61Zm-9,2.82c0,1.77.76,3.37,2.42,3.37,2.67,0,4.13-3.77,4.13-6.52,0-1.83-.79-3.38-2.47-3.38-2.7,0-4.08,3.77-4.08,6.55Z"/><path class="cls-9" d="M118.46,144h2.31l.33,10.55h0L125,144h3.09v10.55h0L132.22,144h2.42L129,157.77H126.2v-11h0l-4.08,11H119.3Z"/><path class="cls-9" d="M136.15,144h6.78l-.33,2.17h-4.53l-.59,3.38h4.05l-.37,2.16h-4l-.67,3.88H141l-.39,2.17h-6.89Z"/><path class="cls-9" d="M145.16,144H148c2.14,0,4.59,0,4.59,3.24a3.38,3.38,0,0,1-3.06,3.67,2.67,2.67,0,0,1-.4,0h0c.64,0,1,.51,1.18,1.27l1.09,5.63H149.1l-.57-3.24c-.25-1.46-.19-2.47-1.46-2.47h-.87l-1,5.62h-2.3Zm1.32,5.88h.84c1.24,0,2.82-.47,2.82-2.27s-1-1.44-2-1.44h-1Z"/><path class="cls-9" d="M165.69,146.66a4.81,4.81,0,0,0-2.53-.73c-.82,0-1.91.39-1.91,1.57,0,2.23,3.91,2.08,3.91,5.91a4.22,4.22,0,0,1-3.8,4.6,4.82,4.82,0,0,1-.93,0,8.6,8.6,0,0,1-3.18-.82l.59-2.36a5.89,5.89,0,0,0,2.82,1,2,2,0,0,0,2.19-1.9v-.23c0-2.51-3.94-2.11-3.94-5.63a4,4,0,0,1,3.67-4.25h.58a6.93,6.93,0,0,1,3,.62Z"/><path class="cls-9" d="M178.8,149.61a10.22,10.22,0,0,1-1.94,6.08A5.94,5.94,0,0,1,172,158c-2.82,0-4.56-2.45-4.56-5.63a10.31,10.31,0,0,1,1.83-6,5.61,5.61,0,0,1,4.72-2.56C177.23,143.76,178.8,145.93,178.8,149.61Zm-9,2.82c0,1.77.76,3.37,2.42,3.37,2.64,0,4.13-3.77,4.13-6.52,0-1.83-.81-3.38-2.47-3.38-2.7,0-4.08,3.77-4.08,6.55Z"/><path class="cls-9" d="M184.34,144l-1.18,6.53c-.36,1.91-1,5.29,1.58,5.29s2.81-2.59,3.23-4.84l1.27-7h2.28L190,152.45c-.65,3.55-2.05,5.63-5.26,5.63-3.77,0-4.7-2.59-4-6.53L182,144.1Z"/><path class="cls-9" d="M193.82,144h2.82c2.13,0,4.58,0,4.58,3.24a3.37,3.37,0,0,1-3.05,3.67,1.74,1.74,0,0,1-.32,0h0c.64,0,1,.51,1.18,1.27l1.1,5.63h-2.42l-.57-3.24c-.25-1.46-.19-2.47-1.46-2.47h-.87l-1,5.62h-2.51Zm1.33,5.88H196c1.24,0,2.81-.47,2.81-2.27s-1-1.44-2-1.44h-1Z"/><path class="cls-9" d="M211.72,146.74a4.2,4.2,0,0,0-2.65-.81c-2.56,0-4.36,2.3-4.36,5.62,0,2.31,1.27,4.36,3.29,4.36a3.93,3.93,0,0,0,2.42-.84l-.36,2.64a8,8,0,0,1-2.62.37c-3.49,0-5.15-2.81-5.15-6.53,0-4.41,2.53-7.7,6.61-7.7a8.34,8.34,0,0,1,3.41.67Z"/><path class="cls-9" d="M214.19,144H221l-.37,2.17h-4.5l-.59,3.38h4l-.36,2.16h-4l-.68,3.88H219l-.39,2.17h-6.87Z"/><path class="cls-9" d="M229,146.66a4.7,4.7,0,0,0-2.42-.73c-.81,0-1.91.39-1.91,1.57,0,2.23,3.94,2.08,3.94,5.91a4.24,4.24,0,0,1-3.86,4.6,4.4,4.4,0,0,1-.89,0,8.58,8.58,0,0,1-3.3-.82l.6-2.36a5.86,5.86,0,0,0,2.81,1,2,2,0,0,0,2.19-1.9,1.76,1.76,0,0,0,0-.23c0-2.51-3.94-2.11-3.94-5.63a4,4,0,0,1,3.75-4.17,3.49,3.49,0,0,1,.56,0,6.92,6.92,0,0,1,3,.61Z"/></g></g></g></g></svg>